<?xml version="1.0" encoding="UTF-8" standalone="no"?>
<svg
   data-v-423bf9ae=""
   viewBox="0 0 3829.9799194335938 4026"
   class="iconAboveSlogan"
   version="1.1"
   id="svg18"
   sodipodi:docname="logo.svg"
   inkscape:version="1.1 (c68e22c387, 2021-05-23)"
   xmlns:inkscape="http://www.inkscape.org/namespaces/inkscape"
   xmlns:sodipodi="http://sodipodi.sourceforge.net/DTD/sodipodi-0.dtd"
   xmlns:xlink="http://www.w3.org/1999/xlink"
   xmlns="http://www.w3.org/2000/svg"
   xmlns:svg="http://www.w3.org/2000/svg">
  <sodipodi:namedview
     id="namedview20"
     pagecolor="#505050"
     bordercolor="#eeeeee"
     borderopacity="1"
     inkscape:pageshadow="0"
     inkscape:pageopacity="0"
     inkscape:pagecheckerboard="0"
     showgrid="false"
     inkscape:zoom="0.13065077"
     inkscape:cx="1917.3251"
     inkscape:cy="2009.173"
     inkscape:window-width="1366"
     inkscape:window-height="710"
     inkscape:window-x="0"
     inkscape:window-y="27"
     inkscape:window-maximized="1"
     inkscape:current-layer="svg18" />
  <!---->
  <!---->
  <!---->
  <g
     data-v-423bf9ae=""
     id="ba04798f-4515-4301-83fe-6312ac9b6cfb"
     fill="#361414"
     transform="matrix(4.81154761148181,0,0,4.81154761148181,1708.81229652067,3916.559622555828)" />
  <defs
     data-v-423bf9ae=""
     id="defs10">
    <linearGradient
       data-v-423bf9ae=""
       gradientTransform="rotate(25)"
       id="25299e00-6139-4800-9df1-188c48598307"
       x1="0%"
       y1="0%"
       x2="100%"
       y2="0%">
      <stop
         data-v-423bf9ae=""
         offset="0%"
         style="stop-color: rgb(240, 0, 121); stop-opacity: 1;"
         id="stop5" />
      <stop
         data-v-423bf9ae=""
         offset="100%"
         style="stop-color: rgb(242, 160, 65); stop-opacity: 1;"
         id="stop7" />
    </linearGradient>
    <linearGradient
       inkscape:collect="always"
       xlink:href="#25299e00-6139-4800-9df1-188c48598307"
       id="linearGradient88"
       gradientTransform="matrix(6.5234445,0,0,6.6774532,-367.46995,-69.559922)"
       x1="56.454834"
       y1="10.477048"
       x2="643.56487"
       y2="10.477048"
       gradientUnits="userSpaceOnUse" />
  </defs>
  <g
     data-v-423bf9ae=""
     id="af2a2194-b96b-4540-afaf-2037e1bb17ce"
     transform="matrix(6.6,0,0,6.6,-367.46998596191406,-69.55993804931632)"
     stroke="none"
     fill="url(#25299e00-6139-4800-9df1-188c48598307)">
    <path
       id="path12"
       style="stroke-width:6.6;fill:url(#linearGradient88)"
       transform="matrix(0.15151515,0,0,0.15151515,55.677271,10.539385)"
       d="M 3065.1895,0.40039062 C 2350.4095,8.3203902 2118.75,525.76086 2118.75,777.88086 v 2.63867 l -55.4395,-17.82031 c -318.7796,-102.3 -649.441,-208.55859 -1019.041,-208.5586 -339.23985,0 -615.11958,91.08004 -798.59958,264 C 87.929934,966.64063 0.81054688,1173.8799 0.81054688,1400.9199 c 0,386.1 265.32000312,803.2207 693.00000312,803.2207 286.43996,0 414.47965,-184.1405 419.09965,-192.0605 15.84,-23.76 9.9006,-55.4393 -13.8594,-71.2793 -23.1,-15.84 -55.4413,-9.9008 -71.2813,13.1992 -4.62,5.94 -104.93911,147.1797 -334.61911,147.1797 -283.8,0 -590.04104,-267.9598 -590.04101,-700.2598 0,-198.66 75.24148,-378.839 212.52148,-507.53904 164.34,-154.44 415.79844,-235.62109 727.97854,-235.62109 353.76,0 675.8413,103.62125 987.3613,203.28125 31.68,10.56 62.6988,19.79937 93.7188,30.35937 43.56,369.60001 298.32,628.97941 544.5,880.43941 250.8,256.08 487.7402,497.6411 487.7402,837.5411 0,227.04 -55.4389,399.2996 -143.8789,526.6796 13.86,-89.1 22.4394,-182.161 22.4394,-276.541 0,-357.72 -211.1993,-731.2794 -525.3593,-929.9394 -258.06,-163.68 -541.8614,-186.7799 -797.9414,-65.3399 -327.36,154.44 -489.7203,512.1597 -405.2403,889.6797 81.84,362.34 417.7817,786.7207 1096.2617,786.7207 v 3.2989 h 15.1797 c 49.5,0 206.5802,-3.2986 396.6602,-43.5586 -69.3,203.94 -144.5413,341.2193 -145.8613,343.8593 -13.86,25.08 -4.6193,56.099 19.8007,69.959 7.92,4.62 16.5,6.6016 24.42,6.6016 18.48,0 35.639,-9.2404 45.539,-26.4004 6.6,-11.88 98.3403,-179.5204 174.2403,-422.4004 187.44,-52.14 390.7207,-141.8997 547.8007,-295.6797 176.88,-172.92 266.6407,-399.9594 266.6407,-673.8594 1.32,-557.04 -394.6805,-882.4214 -744.4805,-1169.5214 -130.68,-107.58 -252.1199,-207.239 -337.9199,-308.879 60.06,7.92 120.1195,12.5391 179.5195,12.5391 40.92,0 78.5394,-2.6396 112.8594,-6.5996 55.44,137.28 199.9815,189.4199 328.0215,189.4199 267.96,0 545.1582,-224.39947 545.1582,-599.93943 0,-166.32 -63.3594,-317.45953 -178.8594,-427.01953 C 3519.9297,67.060934 3323.2501,0.40039063 3084.3301,0.40039062 Z m 0,102.95898938 h 14.5214 1.9786 c 213.18,0 386.1009,56.76164 498.9609,163.68164 95.04,89.75996 147.1797,214.49945 147.1797,352.43945 0,310.86 -224.401,496.98043 -441.541,496.98043 -130.02,0 -193.38,-51.4799 -222.42,-106.9199 82.5,-23.0999 139.2611,-57.42123 177.5411,-87.78123 77.88,-62.7 124.7402,-149.82047 124.7402,-232.98047 0,-89.76 -55.4402,-155.75977 -132.6602,-155.75977 -83.16,0 -161.0409,42.90141 -218.4609,121.44141 -50.82,68.64 -79.8594,158.39937 -79.8594,244.85937 0,10.56 0.6603,19.79922 1.3203,29.69922 -27.72,3.3 -57.4199,4.62109 -90.4199,4.62109 -85.8,0 -172.9195,-9.90054 -262.0195,-27.06054 -29.7,-55.44 -46.8613,-112.19977 -46.8613,-172.25977 0,-213.18 56.7609,-376.85961 168.9609,-485.09961 132.66,-128.7 308.2191,-143.88137 359.0391,-145.86132 z m 166.9804,532.62109 c 29.04,0 29.6992,46.85867 29.6992,52.13867 0,52.14 -32.3388,109.56094 -85.7988,152.46094 -29.7,23.76 -73.9196,50.16062 -138.5996,68.64062 -0.66,-3.3 -0.6602,-6.60039 -0.6602,-9.90039 0,-124.08 83.8194,-263.33984 195.3594,-263.33984 z M 2047.4707,1890.6406 c 136.62,0 275.8789,42.2404 407.8789,125.4004 285.12,180.84 477.1797,519.4184 477.1797,842.8184 0,145.86 -21.7788,289.7399 -52.7988,420.4199 -139.92,111.54 -313.5012,158.4004 -475.2012,158.4004 -618.42,0 -923.3396,-380.8194 -996.5996,-706.8594 -75.24,-334.62 61.3805,-638.2197 348.4805,-774.1797 93.72,-44.22 192.0605,-66 291.0605,-66 z" />
  </g>
  <!---->
  <g
     data-v-423bf9ae=""
     id="61f115da-8b32-418b-88db-63f6ecbc6d5e"
     fill="#361414"
     transform="matrix(1.8570153486392773,0,0,1.8570153486392773,1761.9976719567728,4024.6195034923217)">
    <path
       d="M1.26 2.80L1.26 12.60L3.64 12.60C5.06 12.60 6.20 12.15 7.05 11.25C7.90 10.35 8.33 9.17 8.33 7.70C8.33 6.23 7.90 5.05 7.05 4.15C6.20 3.25 5.06 2.80 3.64 2.80ZM1.68 3.22L3.64 3.22C4.94 3.22 5.97 3.63 6.73 4.46C7.50 5.28 7.88 6.37 7.88 7.70C7.88 9.09 7.50 10.18 6.75 10.98C5.99 11.78 4.96 12.18 3.64 12.18L1.68 12.18ZM19.95 6.96L20.20 6.57C19.84 6.22 19.48 6.05 19.14 6.05C18.35 6.05 17.85 6.51 17.64 7.43L17.64 6.16L17.22 6.16L17.22 12.60L17.64 12.60L17.64 8.68C17.64 8.17 17.77 7.68 18.02 7.21C18.27 6.74 18.59 6.51 18.98 6.51C19.40 6.51 19.73 6.66 19.95 6.96ZM33.35 9.06L28.50 9.06C28.52 8.38 28.77 7.77 29.25 7.25C29.73 6.73 30.31 6.47 31.00 6.47C31.68 6.47 32.24 6.72 32.68 7.24C33.11 7.75 33.34 8.36 33.35 9.06ZM28.48 9.48L33.78 9.48C33.79 9.43 33.80 9.38 33.80 9.32C33.80 8.33 33.54 7.53 33.02 6.94C32.50 6.34 31.83 6.05 31.00 6.05C30.15 6.05 29.44 6.36 28.88 6.99C28.32 7.61 28.04 8.41 28.04 9.38C28.04 10.33 28.34 11.13 28.92 11.76C29.51 12.39 30.20 12.71 31.00 12.71C32.23 12.71 33.15 12.13 33.75 10.96L33.39 10.74C32.85 11.76 32.06 12.28 31.02 12.28C30.33 12.28 29.74 12.01 29.25 11.47C28.75 10.92 28.49 10.26 28.48 9.48ZM42.45 7.32C42.82 7.03 43.17 6.81 43.49 6.66C43.81 6.51 44.21 6.44 44.69 6.44C45.83 6.44 46.40 6.95 46.40 7.98L46.40 9.13C45.90 8.82 45.28 8.67 44.52 8.67C43.83 8.67 43.23 8.85 42.73 9.21C42.24 9.56 41.99 10.07 41.99 10.71C41.99 11.39 42.20 11.90 42.62 12.24C43.04 12.57 43.54 12.74 44.13 12.74C44.73 12.74 45.22 12.61 45.62 12.35C46.02 12.09 46.27 11.74 46.40 11.31L46.40 12.60L46.82 12.60L46.82 7.98C46.82 7.34 46.65 6.85 46.31 6.52C45.98 6.19 45.43 6.02 44.69 6.02C44.32 6.02 43.98 6.07 43.65 6.18C43.31 6.29 43.06 6.40 42.89 6.50C42.72 6.61 42.49 6.76 42.22 6.96ZM42.42 10.71C42.42 10.20 42.62 9.79 43.02 9.50C43.41 9.21 43.91 9.06 44.52 9.06C45.19 9.06 45.82 9.23 46.40 9.56L46.40 10.36C46.40 10.94 46.18 11.41 45.74 11.79C45.30 12.16 44.79 12.35 44.20 12.35C43.64 12.35 43.20 12.21 42.89 11.93C42.58 11.65 42.42 11.24 42.42 10.71ZM56.41 8.68C56.41 8.13 56.60 7.62 56.99 7.16C57.39 6.70 57.85 6.47 58.39 6.47C58.87 6.47 59.23 6.65 59.47 7.01C59.71 7.38 59.84 7.89 59.84 8.54L59.84 12.60L60.26 12.60L60.26 8.68C60.26 8.13 60.45 7.62 60.84 7.16C61.24 6.70 61.70 6.47 62.24 6.47C62.72 6.47 63.08 6.65 63.32 7.01C63.56 7.38 63.69 7.89 63.69 8.54L63.69 12.60L64.11 12.60L64.11 8.40C64.11 7.69 63.95 7.12 63.65 6.69C63.35 6.26 62.93 6.05 62.38 6.05C61.84 6.05 61.38 6.19 61.00 6.47C60.62 6.76 60.34 7.15 60.19 7.64C60.08 7.15 59.89 6.76 59.61 6.47C59.33 6.19 58.97 6.05 58.53 6.05C58.00 6.05 57.55 6.19 57.18 6.47C56.81 6.75 56.56 7.13 56.41 7.62L56.41 6.16L55.99 6.16L55.99 12.60L56.41 12.60ZM84.76 2.80L84.76 12.60L86.86 12.60C88.98 12.60 90.05 11.69 90.05 9.87C90.05 9.19 89.81 8.62 89.34 8.17C88.87 7.72 88.30 7.41 87.64 7.25C88.87 7.02 89.49 6.30 89.49 5.11C89.49 4.40 89.23 3.84 88.72 3.42C88.22 3.01 87.50 2.80 86.58 2.80ZM85.18 7.08L85.18 3.21L86.58 3.21C87.35 3.21 87.96 3.37 88.40 3.71C88.85 4.05 89.07 4.51 89.07 5.11C89.07 5.60 88.93 5.99 88.66 6.31C88.39 6.62 88.08 6.83 87.73 6.93C87.38 7.03 87.00 7.08 86.58 7.08ZM85.18 7.48L86.86 7.48C87.26 7.48 87.66 7.56 88.06 7.72C88.46 7.88 88.82 8.16 89.12 8.54C89.43 8.92 89.59 9.37 89.59 9.87C89.59 11.42 88.68 12.19 86.86 12.19L85.18 12.19ZM103.21 10.08C103.21 10.64 103.00 11.15 102.60 11.61C102.19 12.06 101.69 12.29 101.08 12.29C100.03 12.29 99.50 11.60 99.50 10.22L99.50 6.16L99.08 6.16L99.08 10.36C99.08 11.08 99.24 11.65 99.55 12.07C99.87 12.50 100.33 12.71 100.94 12.71C101.53 12.71 102.01 12.57 102.40 12.30C102.78 12.02 103.05 11.64 103.21 11.14L103.21 12.60L103.63 12.60L103.63 6.16L103.21 6.16ZM113.01 3.15C113.01 3.26 113.04 3.36 113.11 3.43C113.18 3.50 113.28 3.54 113.40 3.54C113.52 3.54 113.62 3.50 113.69 3.43C113.76 3.36 113.79 3.26 113.79 3.15C113.79 3.04 113.76 2.94 113.69 2.87C113.62 2.80 113.52 2.76 113.40 2.76C113.28 2.76 113.18 2.80 113.11 2.87C113.04 2.94 113.01 3.04 113.01 3.15ZM113.19 6.16L113.19 12.60L113.61 12.60L113.61 6.16ZM123.17 1.68L123.17 12.60L123.59 12.60L123.59 1.68ZM132.41 9.38C132.41 10.39 132.71 11.20 133.30 11.80C133.89 12.41 134.64 12.71 135.53 12.71C136.15 12.71 136.69 12.53 137.15 12.17C137.61 11.80 137.95 11.32 138.15 10.72L138.15 12.60L138.57 12.60L138.57 1.68L138.15 1.68L138.15 8.04C137.95 7.44 137.61 6.96 137.15 6.59C136.69 6.23 136.15 6.05 135.53 6.05C134.64 6.05 133.89 6.35 133.30 6.96C132.71 7.56 132.41 8.37 132.41 9.38ZM132.85 9.38C132.85 8.48 133.11 7.77 133.65 7.25C134.19 6.73 134.80 6.47 135.49 6.47C136.26 6.47 136.89 6.75 137.40 7.31C137.90 7.87 138.15 8.56 138.15 9.38C138.15 10.20 137.90 10.89 137.40 11.45C136.89 12.01 136.26 12.29 135.49 12.29C134.80 12.29 134.19 12.03 133.65 11.51C133.11 10.99 132.85 10.28 132.85 9.38ZM152.63 9.06L147.78 9.06C147.80 8.38 148.05 7.77 148.53 7.25C149.01 6.73 149.59 6.47 150.28 6.47C150.96 6.47 151.52 6.72 151.96 7.24C152.39 7.75 152.62 8.36 152.63 9.06ZM147.76 9.48L153.06 9.48C153.07 9.43 153.08 9.38 153.08 9.32C153.08 8.33 152.82 7.53 152.30 6.94C151.78 6.34 151.11 6.05 150.28 6.05C149.43 6.05 148.72 6.36 148.16 6.99C147.60 7.61 147.32 8.41 147.32 9.38C147.32 10.33 147.62 11.13 148.20 11.76C148.79 12.39 149.48 12.71 150.28 12.71C151.51 12.71 152.43 12.13 153.03 10.96L152.67 10.74C152.13 11.76 151.34 12.28 150.30 12.28C149.61 12.28 149.02 12.01 148.53 11.47C148.03 10.92 147.77 10.26 147.76 9.48ZM164.63 6.96L164.88 6.57C164.51 6.22 164.16 6.05 163.81 6.05C163.03 6.05 162.53 6.51 162.32 7.43L162.32 6.16L161.90 6.16L161.90 12.60L162.32 12.60L162.32 8.68C162.32 8.17 162.44 7.68 162.69 7.21C162.95 6.74 163.27 6.51 163.66 6.51C164.08 6.51 164.40 6.66 164.63 6.96Z"
       id="path15" />
  </g>
</svg>
